<svg width="62" height="33" viewBox="0 0 62 33" fill="none" xmlns="http://www.w3.org/2000/svg">
<g clip-path="url(#clip0_1_24)">
<line y1="-0.5" x2="44.9666" y2="-0.5" transform="matrix(0.710654 -0.703542 0.702498 0.711685 30.953 32.7278)" stroke="rgb(255,255,255, .5)"/>
<line y1="-0.5" x2="44.9666" y2="-0.5" transform="matrix(0.708838 0.705372 -0.704331 0.709872 -0.959202 1.05081)" stroke="rgb(255,255,255, .5)"/>
<line y1="-0.5" x2="44.9666" y2="-0.5" transform="matrix(0.710654 -0.703542 0.702498 0.711685 31.0443 23.6359)" stroke="rgb(255,255,255, .5)"/>
<line y1="-0.5" x2="44.9666" y2="-0.5" transform="matrix(0.710652 0.703544 -0.7025 0.711683 -0.908764 -8)" stroke="rgb(255,255,255, .5)"/>
<line y1="-0.5" x2="44.9666" y2="-0.5" transform="matrix(0.710654 -0.703542 0.702498 0.711685 31.0443 12.6359)" stroke="rgb(255,255,255, .5)"/>
<line y1="-0.5" x2="44.9666" y2="-0.5" transform="matrix(0.710652 0.703544 -0.7025 0.711683 -0.908764 -19)" stroke="rgb(255,255,255, .5)"/>
<circle cy="26" r="3" fill="rgb(255,255,255, .5)"/>
<circle cx="62" cy="26" r="3" fill="rgb(255,255,255, .5)"/>
<line y1="1.5" x2="62" y2="1.5" stroke="rgb(255,255,255, .5)"/>
<line y1="0.5" x2="62" y2="0.5" stroke="rgb(255,255,255, .5)"/>
</g>
<defs>
<clipPath id="clip0_1_24">
<rect width="62" height="33" fill="rgb(255,255,255, .5)"/>
</clipPath>
</defs>
</svg>
