<svg width="64" height="98" viewBox="0 0 64 98" fill="none" xmlns="http://www.w3.org/2000/svg">
<g clip-path="url(#clip0_14_5430)">
<mask id="mask0_14_5430" style="mask-type:luminance" maskUnits="userSpaceOnUse" x="32" y="0" width="32" height="98">
<path d="M32 0L32 98H64V0H32Z" fill="rgb(255,255,255, .7)"/>
</mask>
<g mask="url(#mask0_14_5430)">
<path d="M63.372 49.6293L31.7361 -0.881283" stroke="rgb(255,255,255, .7)"/>
<path d="M31.6959 98.9595L63.414 48.578" stroke="rgb(255,255,255, .7)"/>
<path d="M54.2801 49.4852L22.6442 -1.02543" stroke="rgb(255,255,255, .7)"/>
<path d="M22.6442 98.8812L54.2801 48.3708" stroke="rgb(255,255,255, .7)"/>
<path d="M43.2801 49.4852L11.6442 -1.02543" stroke="rgb(255,255,255, .7)"/>
<path d="M11.6442 98.8812L43.2801 48.3708" stroke="rgb(255,255,255, .7)"/>
<path d="M56 98C56 95.7909 54.2091 94 52 94C49.7909 94 48 95.7909 48 98C48 100.209 49.7909 102 52 102C54.2091 102 56 100.209 56 98Z" fill="rgb(255,255,255, .7)"/>
<path d="M56 0C56 -2.20914 54.2091 -4 52 -4C49.7909 -4 48 -2.20914 48 0C48 2.20914 49.7909 4 52 4C54.2091 4 56 2.20914 56 0Z" fill="rgb(255,255,255, .7)"/>
<path d="M32.5 98L32.5 -2.6226e-06" stroke="rgb(255,255,255, .7)"/>
</g>
<mask id="mask1_14_5430" style="mask-type:luminance" maskUnits="userSpaceOnUse" x="0" y="0" width="32" height="98">
<path d="M32 98L32 0L0 0L0 98H32Z" fill="rgb(255,255,255, .7)"/>
</mask>
<g mask="url(#mask1_14_5430)">
<path d="M0.628006 48.3707L32.2639 98.8813" stroke="rgb(255,255,255, .7)"/>
<path d="M32.3041 -0.959503L0.585954 49.422" stroke="rgb(255,255,255, .7)"/>
<path d="M9.7199 48.5148L41.3558 99.0254" stroke="rgb(255,255,255, .7)"/>
<path d="M41.3558 -0.881287L9.71986 49.6292" stroke="rgb(255,255,255, .7)"/>
<path d="M20.7199 48.5148L52.3558 99.0254" stroke="rgb(255,255,255, .7)"/>
<path d="M52.3558 -0.881287L20.7199 49.6292" stroke="rgb(255,255,255, .7)"/>
<path d="M8 0C8 2.20914 9.79086 4 12 4C14.2091 4 16 2.20914 16 0C16 -2.20914 14.2091 -4 12 -4C9.79086 -4 8 -2.20914 8 0Z" fill="rgb(255,255,255, .7)"/>
<path d="M8 98C8 100.209 9.79086 102 12 102C14.2091 102 16 100.209 16 98C16 95.7909 14.2091 94 12 94C9.79086 94 8 95.7909 8 98Z" fill="rgb(255,255,255, .7)"/>
<path d="M31.5 -2.6226e-06L31.5 98" stroke="rgb(255,255,255, .7)"/>
</g>
</g>
<defs>
<clipPath id="clip0_14_5430">
<rect width="98" height="64" fill="rgb(255,255,255, 0.2)" transform="matrix(0 -1 1 0 0 98)"/>
</clipPath>
</defs>
</svg>
