<svg width="292"
     height="292"
     viewBox="0 0 292 292"
     xmlns="http://www.w3.org/2000/svg">

  <g transform="rotate(90 146 146)">

    <defs>
      <mask id="cutMask" maskUnits="userSpaceOnUse">
        
        <rect width="53" height="292" fill="rgb(255,255,255, 0.2)"/>

        <g stroke="black"
           stroke-width="1.2"
           stroke-linecap="round"
           fill="none">

          <!-- (tu contenido original intacto) -->
          
          <path d="M-1.96296 -1.47222L21.2382 24.537L43.5123 0.981482L55.9444 16.1944"/>
          <path d="M-1.96296 3.92593L21.2382 29.9352L43.5123 6.37963L55.9444 21.5926"/>
          <path d="M-1.96296 8.83333L21.2382 34.8426L43.5123 11.287L55.9444 26.5"/>
          <path d="M-1.9537 23L21.2474 49.0093L43.5216 25.4537L55.9537 40.6667"/>
          <path d="M-2 28.8889L21.2382 55.8889L43.548 31.4361L56 47.2285"/>
          <path d="M-2 42L21.2382 69L43.548 44.5472L56 60.3396"/>
          <path d="M-3 121L20.2382 95L42.548 118.547L55 103.34"/>
          <path d="M-3 132L20.2382 106L42.548 129.547L55 114.34"/>
          <path d="M-3 138L20.2382 112L42.548 135.547L55 120.34"/>
          <path d="M-3 152L20.2382 126L42.548 149.547L55 134.34"/>
          <path d="M-3 158L20.2382 132L42.548 155.547L55 140.34"/>
          <path d="M-3 164L20.2382 138L42.548 161.547L55 146.34"/>
          <path d="M-3 170L20.2382 144L42.548 167.547L55 152.34"/>
          <path d="M-1 214L22.2382 188L44.548 211.547L57 196.34"/>
          <path d="M-1 220L22.2382 194L44.548 217.547L57 202.34"/>
          <path d="M-1 250L22.2382 276L44.548 252.453L57 267.66"/>
          <path d="M-1 245L22.2382 271L44.548 247.453L57 262.66"/>

          <line y1="69.5093" x2="53" y2="69.5093"/>
          <line y1="72.5093" x2="53" y2="72.5093"/>
          <line y1="75.5093" x2="53" y2="75.5093"/>
          <line y1="78.5093" x2="53" y2="78.5093"/>
          <line y1="81.5093" x2="53" y2="81.5093"/>
          <line y1="84.5093" x2="53" y2="84.5093"/>
          <line y1="87.5093" x2="53" y2="87.5093"/>
          <line y1="90.5093" x2="53" y2="90.5093"/>
          <line y1="93.5093" x2="53" y2="93.5093"/>

          <line y1="173.509" x2="53" y2="173.509"/>
          <line y1="176.509" x2="53" y2="176.509"/>
          <line y1="179.509" x2="53" y2="179.509"/>
          <line y1="182.509" x2="53" y2="182.509"/>
          <line y1="185.509" x2="53" y2="185.509"/>

          <line y1="279.509" x2="53" y2="279.509"/>
          <line y1="282.509" x2="53" y2="282.509"/>
          <line y1="285.509" x2="53" y2="285.509"/>
          <line y1="288.509" x2="53" y2="288.509"/>
          <line y1="291.509" x2="53" y2="291.509"/>

        </g>

      </mask>
    </defs>

    <rect width="53"
          height="292"
          fill="white"
          mask="url(#cutMask)"/>

  </g>

</svg>